<svg width="32" height="32" viewBox="0 0 32 32" class="pattern" xmlns="http://www.w3.org/2000/svg">
<path d="M9.038 32H3.44141C3.44141 29.2505 4.87468 26.8714 7.71197 24.9409C9.78875 23.5271 12.4115 22.4546 14.9466 21.4113C18.7101 19.8708 22.971 18.1255 22.971 16C22.971 13.8745 18.7101 12.1292 14.9466 10.5887C12.4115 9.55515 9.78875 8.47288 7.71197 7.05911C4.87468 5.11883 3.44141 2.74954 3.44141 0H9.038C9.038 2.12553 13.2988 3.87081 17.0624 5.41133C19.5974 6.44485 22.2202 7.52712 24.297 8.94089C27.1343 10.8714 28.5675 13.2505 28.5675 16C28.5675 18.7495 27.1343 21.1286 24.297 23.0591C22.2202 24.4729 19.5974 25.5454 17.0624 26.5887C13.2988 28.1292 9.038 29.8745 9.038 32Z" />
</svg>
