<svg width="32" height="32" viewBox="0 0 32 32" class="pattern" xmlns="http://www.w3.org/2000/svg">
<path d="M15.9898 7.92941C16.9648 11.9172 20.0751 15.0178 24.0532 15.9928C20.0654 16.9678 16.9648 20.0781 15.9898 24.0562C15.0148 20.0683 11.9045 16.9678 7.92645 15.9928C11.9143 15.0178 15.0148 11.9172 15.9898 7.92941ZM15.9898 1.60156C13.562 1.60156 11.1245 3.12259 10.637 6.16463C10.2665 8.47542 8.45296 10.2889 6.14217 10.6595C3.10013 11.147 1.5791 13.5747 1.5791 16.0123C1.5791 18.4401 3.10013 20.8776 6.14217 21.3651C8.45296 21.7356 10.2665 23.5492 10.637 25.8599C11.1245 28.902 13.5523 30.423 15.9898 30.423C18.4176 30.423 20.8552 28.902 21.3427 25.8599C21.7132 23.5492 23.5267 21.7356 25.8375 21.3651C28.8795 20.8776 30.4006 18.4498 30.4006 16.0123C30.4006 13.5845 28.8795 11.147 25.8375 10.6595C23.5267 10.2889 21.7132 8.47542 21.3427 6.16463C20.8552 3.12259 18.4274 1.60156 15.9898 1.60156Z" />
</svg>
