<svg width="32" height="32" viewBox="0 0 32 32" class="pattern" xmlns="http://www.w3.org/2000/svg">
<path d="M31.6042 25.2042C26.5267 25.2042 22.3952 21.0727 22.3952 15.9952C22.3952 10.9176 26.5267 6.78612 31.6042 6.78612C31.6332 6.78612 31.6525 6.78612 31.6814 6.78612V0C31.6525 0 31.6332 0 31.6042 0C22.7716 0 15.6187 7.1626 15.6187 15.9855C15.6187 24.8181 22.7813 31.971 31.6042 31.971C31.6332 31.971 31.6525 31.971 31.6814 31.971V25.1849C31.6525 25.2042 31.6235 25.2042 31.6042 25.2042Z" />
<path d="M0.0772295 6.79578C5.15476 6.79578 9.28628 10.9273 9.28628 16.0048C9.28628 21.0824 5.15476 25.2139 0.0772295 25.2139C0.0482702 25.2139 0.0289593 25.2139 0 25.2139V32C0.0289593 32 0.0482702 32 0.0772295 32C8.90981 32 16.0627 24.8374 16.0627 16.0145C16.0627 7.1819 8.90016 0.0289581 0.0772295 0.0289581C0.0482702 0.0289581 0.0289593 0.0289581 0 0.0289581V6.81508C0.0289593 6.79578 0.0579233 6.79578 0.0772295 6.79578Z" />
</svg>
