<svg width="127" height="48" viewBox="0 0 127 48" class="logo" xmlns="http://www.w3.org/2000/svg">
<path d="M55.2747 18.5178C55.2747 19.8639 55.1877 20.7858 55.0169 21.2865C54.8446 21.7873 54.4847 22.0369 53.9356 22.0369C53.4537 22.0369 53.1288 21.8822 52.9565 21.5713C52.7842 21.262 52.6988 20.7613 52.6988 20.0706V8.21803C52.6988 5.63005 51.7883 3.64543 49.9673 2.26569C48.1448 0.885949 45.5674 0.195312 42.235 0.195312C40.138 0.195312 38.163 0.480143 36.3069 1.0498C34.4509 1.61946 32.938 2.44792 31.7713 3.53517C30.6031 4.6209 30.0189 5.94092 30.0189 7.4937C30.0189 8.80606 30.4139 9.84125 31.2039 10.5993C31.9939 11.3588 32.9731 11.7386 34.1428 11.7386C35.2073 11.7386 36.1194 11.4277 36.8743 10.806C37.6292 10.1843 38.0074 9.37419 38.0074 8.37422C38.0074 7.54577 37.7161 6.84594 37.132 6.27781C36.5479 5.70815 35.825 5.40648 34.9664 5.37279V5.26866C35.5505 5.0267 36.2886 4.80313 37.1824 4.5964C38.0761 4.38967 39.0201 4.28553 40.0175 4.28553C41.5289 4.28553 42.7566 4.56271 43.7037 5.11399C44.6477 5.66681 45.1205 6.49373 45.1205 7.59936C45.1205 8.63455 44.785 9.42779 44.1155 9.9806C43.4444 10.5334 42.2686 11.0495 40.5833 11.5334L37.5941 12.3618C35.7045 12.8779 34.1657 13.4231 32.9807 13.9912C31.7957 14.5609 30.8501 15.3127 30.1455 16.2423C29.4409 17.1749 29.0886 18.3479 29.0886 19.7628C29.0886 21.971 29.8619 23.6371 31.4083 24.7581C32.9548 25.879 34.9649 26.441 37.4401 26.441C39.3297 26.441 40.9524 26.1378 42.3113 25.536C43.6671 24.9327 44.7606 24.1287 45.5842 23.1287H45.6863C46.1332 24.1991 46.8546 25.0092 47.852 25.5605C48.8479 26.1133 50.3593 26.389 52.3876 26.389C54.0714 26.389 55.3769 26.1041 56.3056 25.536C57.2344 24.9663 57.878 24.1287 58.2379 23.0246C58.5994 21.9205 58.7794 20.4718 58.7794 18.6786V15.936H55.2731V18.524L55.2747 18.5178ZM45.1205 17.0171C45.1205 18.5699 44.7423 19.795 43.9874 20.6924C43.2309 21.5897 42.1832 22.0369 40.8426 22.0369C39.6744 22.0369 38.7715 21.7367 38.1371 21.1319C37.5011 20.5285 37.1824 19.8302 37.1824 19.0354C37.1824 18.1396 37.4492 17.4306 37.9815 16.9145C38.5138 16.3969 39.5539 15.8457 41.1003 15.2576L42.5965 14.688L42.7505 14.6359C43.3011 14.3939 43.783 14.1704 44.1948 13.9636C44.6066 13.7569 44.9162 13.567 45.122 13.394V17.0171H45.1205Z" />
<path d="M97.2714 25.5413C97.2714 27.7862 97.1494 29.2992 96.9069 30.0787C96.6629 30.8597 96.0803 31.2501 95.1576 31.2501C94.4286 31.2501 93.9543 31.0067 93.7362 30.5182C93.5181 30.0312 93.4083 29.2502 93.4083 28.1767V11.3442C93.4083 7.58781 92.1928 4.75789 89.7633 2.85443C87.3323 0.950965 83.7376 0 78.9763 0C76.1091 0 73.4005 0.365991 70.849 1.09797C68.2975 1.82996 66.2203 2.96468 64.6174 4.50062C63.0145 6.03809 62.2123 7.95227 62.2123 10.2462C62.2123 12.1987 62.7583 13.6979 63.8518 14.7468C64.9453 15.7973 66.2691 16.3211 67.8247 16.3211C69.2827 16.3211 70.5089 15.9076 71.5048 15.0776C72.5007 14.2492 72.9994 13.1267 72.9994 11.7117C72.9994 10.4928 72.5861 9.47902 71.761 8.67507C70.9344 7.86958 69.8897 7.41936 68.6269 7.32136V7.17435C69.4032 6.68738 70.486 6.26014 71.8708 5.89414C73.2556 5.52815 74.7502 5.34592 76.3531 5.34592C78.5401 5.34592 80.3123 5.74867 81.6742 6.55415C83.0346 7.35964 83.7148 8.59237 83.7148 10.2508C83.7148 11.9093 83.2161 13.1175 82.2202 13.874C81.2243 14.6305 79.4613 15.3502 76.9357 16.0332L72.7813 17.2047C70.1566 17.9366 68.0306 18.6809 66.4033 19.4374C64.7745 20.1938 63.4629 21.2306 62.467 22.5475C61.4711 23.8645 60.9724 25.598 60.9724 27.7434C60.9724 30.8658 62.0293 33.2087 64.1431 34.7692C66.2569 36.3296 69.0631 37.1106 72.5617 37.1106C75.2337 37.1106 77.5183 36.6834 79.414 35.8304C81.3097 34.9774 82.8882 33.7937 84.1525 32.2807H84.2989C84.7839 33.7447 85.6837 34.9039 86.9953 35.7569C88.3069 36.6098 90.3718 37.0371 93.1902 37.0371C95.6197 37.0371 97.4651 36.6466 98.7294 35.8656C99.9922 35.0862 100.854 33.8779 101.318 32.2425C101.778 30.6085 102.01 28.3268 102.01 25.3989V22.618H97.2714V25.5459V25.5413ZM83.7132 23.5643C83.7132 26.0528 83.1413 27.9562 82.0005 29.2732C80.8582 30.5901 79.2676 31.2486 77.227 31.2486C75.3801 31.2486 73.9709 30.7861 72.9994 29.8582C72.0264 28.9317 71.5414 27.8827 71.5414 26.7112C71.5414 25.2473 71.9532 24.1616 72.7813 23.4541C73.6064 22.7481 75.162 21.9534 77.4466 21.0759L79.9249 20.1249L80.143 20.0514C80.9681 19.7099 81.6971 19.3929 82.33 19.1005C82.9614 18.808 83.4235 18.54 83.7148 18.295V23.5643H83.7132Z" />
<path d="M0 7.3085H4.7202C6.25141 7.3085 7.12529 7.45551 7.70788 8.25947C8.21879 8.77247 8.43688 9.79694 8.43688 11.3329V37.8267C8.43688 39.3641 8.21879 40.3886 7.70788 40.9001C7.19697 41.5585 6.24988 41.851 4.7202 41.851H0V47.9994H27.4946V41.851H22.7744C21.2432 41.851 20.2961 41.5585 19.7867 40.9001C19.2758 40.3871 19.0577 39.3626 19.0577 37.8267V11.3329C19.0577 9.79541 19.2758 8.77094 19.7867 8.25947C20.3693 7.45398 21.2447 7.3085 22.7744 7.3085H27.4946V1.16016H0V7.3085Z" />
<path d="M121.113 16.0439C120.624 19.7941 118.948 21.6731 116.082 21.6731C114.295 21.6731 112.937 20.958 112.01 19.5262C111.081 18.0944 110.617 15.9474 110.617 13.0807C110.617 10.2141 111.159 8.13909 112.24 6.74097C113.323 5.34285 114.877 4.64456 116.905 4.64456C117.97 4.64456 118.847 4.80841 119.535 5.13612C120.221 5.46383 120.772 5.83441 121.183 6.24941V6.35201C120.255 6.59396 119.535 7.00895 119.018 7.59546C118.502 8.18196 118.245 8.95989 118.245 9.92463C118.245 11.064 118.597 11.9598 119.301 12.6167C120.005 13.2722 120.994 13.5983 122.266 13.5983C123.605 13.5983 124.688 13.1665 125.513 12.3043C126.338 11.4422 126.75 10.234 126.75 8.68118C126.75 7.231 126.424 5.9462 125.771 4.82526C125.118 3.70431 124.208 2.78091 123.039 2.05505C121.081 0.813132 118.572 0.191406 115.513 0.191406C112.833 0.191406 110.479 0.727377 108.452 1.79779C106.423 2.8682 104.851 4.38576 103.735 6.35201C102.617 8.31825 102.059 10.649 102.059 13.3411C102.059 16.0332 102.626 18.517 103.761 20.4833C104.895 22.4495 106.433 23.9334 108.374 24.9349C110.314 25.9348 112.489 26.4356 114.894 26.4356C118.467 26.4356 121.26 25.477 123.27 23.5628C125.156 21.7665 126.3 19.2536 126.718 16.0439H121.11H121.113Z" />
</svg>
